<svg viewBox="0 0 180 180" xmlns="http://www.w3.org/2000/svg" style="fill-rule:evenodd;clip-rule:evenodd;">
  <style>
    .bg { fill: #fbfbfb; }
    .fg { fill: #1a1a1a; }
    @media (prefers-color-scheme: dark) {
      .bg { fill: #1a1a1a; }
      .fg { fill: #fbfbfb; }
    }
  </style>
  <g transform="matrix(1.71423,0,0,1.71423,-82.5011,-85.4302)">
    <path class="bg" d="M153.131,65.708L153.131,138.968C153.131,147.728 146.019,154.84 137.259,154.84L63.999,154.84C55.239,154.84 48.127,147.728 48.127,138.968L48.127,65.708C48.127,56.948 55.239,49.836 63.999,49.836L137.259,49.836C146.019,49.836 153.131,56.948 153.131,65.708Z"/>
  </g>
  <g transform="matrix(1.19262,0,0,1.15138,-21.1884,-21.2923)">
    <g transform="matrix(1,0,0,1,-3.12589,-4.83421)">
      <path class="fg" fill-rule="nonzero" d="M73.095,47.278C73.337,47.278 73.458,47.528 73.458,48.028C73.458,48.528 73.337,48.778 73.095,48.778C71.083,48.778 69.554,49.028 68.507,49.529C67.461,50.029 66.777,50.904 66.455,52.155C66.133,53.406 65.972,55.24 65.972,57.658L65.972,125.945C65.972,135.283 63.738,142.579 59.27,147.832C54.803,153.085 48.585,155.711 40.616,155.711C37.637,155.711 35.162,155.065 33.19,153.772C31.218,152.48 30.232,150.625 30.232,148.207C30.232,146.706 30.715,145.268 31.681,143.892C32.647,142.516 34.256,141.829 36.51,141.829C38.442,141.829 39.931,142.391 40.978,143.517C42.024,144.643 42.849,145.956 43.453,147.457C44.057,148.957 44.62,150.271 45.143,151.396C45.667,152.522 46.411,153.085 47.377,153.085C49.068,153.085 50.315,151.688 51.12,148.895C51.925,146.102 52.328,141.37 52.328,134.7L52.328,57.408C52.328,54.99 52.086,53.177 51.603,51.968C51.12,50.759 50.154,49.925 48.705,49.466C47.256,49.008 45.083,48.778 42.185,48.778C42.024,48.778 41.944,48.528 41.944,48.028C41.944,47.528 42.024,47.278 42.185,47.278C44.681,47.278 47.337,47.34 50.154,47.465C52.972,47.59 55.91,47.653 58.969,47.653C61.786,47.653 64.382,47.59 66.756,47.465C69.131,47.34 71.244,47.278 73.095,47.278Z"/>
    </g>
    <g transform="matrix(1,0,0,1.33796,2.93466,-18.9716)">
      <path class="fg" fill-rule="nonzero" d="M113.786,126.946C107.99,126.946 102.738,125.882 98.029,123.756C93.32,121.63 89.295,118.691 85.955,114.939C82.614,111.187 80.038,106.872 78.227,101.995C76.416,97.117 75.51,91.927 75.51,86.424C75.51,79.67 76.778,73.75 79.314,68.664C81.849,63.578 85.21,59.347 89.396,55.97C93.581,52.593 98.17,50.071 103.16,48.403C108.151,46.736 113.102,45.902 118.012,45.902C123.968,45.902 129.301,47.007 134.01,49.216C138.719,51.426 142.724,54.406 146.024,58.158C149.324,61.91 151.84,66.163 153.571,70.915C155.301,75.668 156.167,80.545 156.167,85.548C156.167,91.385 155.04,96.804 152.786,101.807C150.532,106.81 147.453,111.187 143.549,114.939C139.645,118.691 135.137,121.63 130.026,123.756C124.914,125.882 119.501,126.946 113.786,126.946ZM117.77,123.819C122.278,123.819 125.359,122.485 128.901,119.817C132.443,117.149 134.297,113.23 136.35,108.06C138.402,102.891 139.429,96.596 139.429,89.175C139.429,81.504 138.302,74.667 136.048,68.664C133.794,62.661 130.574,57.929 126.388,54.469C122.203,51.009 119.058,49.279 113.182,49.279C105.857,49.279 102.109,52.155 98.165,57.908C94.22,63.661 92.248,71.624 92.248,81.796C92.248,87.883 92.932,93.49 94.301,98.618C95.669,103.745 97.581,108.206 100.036,112C102.491,115.794 105.389,118.712 108.73,120.755C112.07,122.797 113.826,123.819 117.77,123.819Z"/>
    </g>
  </g>
</svg>
