<svg width="32" height="32" viewBox="0 0 32 32" fill="none" xmlns="http://www.w3.org/2000/svg">
  <circle cx="16" cy="16" r="13.5" stroke="#1A1A1A" stroke-width="1.5" fill="none"/>
  <path d="M 9.338,4.258 A 13.5 13.5 0 0 1 22.662,4.258 L 20.744,14.419 A 5.0 5.0 0 0 0 17.076,11.117 Z" fill="#1A1A1A"/>
  <path d="M 21.026,3.470 A 13.5 13.5 0 0 1 29.334,13.888 L 20.193,18.723 A 5.0 5.0 0 0 0 20.488,13.797 Z" fill="#1A1A1A"/>
  <path d="M 28.930,12.117 A 13.5 13.5 0 0 1 25.965,25.108 L 16.485,20.976 A 5.0 5.0 0 0 0 20.521,18.136 Z" fill="#1A1A1A"/>
  <path d="M 27.097,23.688 A 13.5 13.5 0 0 1 15.092,29.469 L 12.412,19.482 A 5.0 5.0 0 0 0 17.149,20.866 Z" fill="#1A1A1A"/>
  <path d="M 16.908,29.469 A 13.5 13.5 0 0 1 4.903,23.688 L 11.040,15.366 A 5.0 5.0 0 0 0 12.912,19.932 Z" fill="#1A1A1A"/>
  <path d="M 6.035,25.108 A 13.5 13.5 0 0 1 3.070,12.117 L 13.403,11.727 A 5.0 5.0 0 0 0 11.000,16.037 Z" fill="#1A1A1A"/>
  <path d="M 2.666,13.888 A 13.5 13.5 0 0 1 10.974,3.470 L 17.722,11.306 A 5.0 5.0 0 0 0 12.853,12.114 Z" fill="#1A1A1A"/>
  <circle cx="16" cy="16" r="2.5" fill="#1A1A1A"/>
</svg>